<svg xmlns="http://www.w3.org/2000/svg" width="25.6" height="22" viewBox="0 0 25.6 22">
  <g id="cart" transform="translate(0 -36)">
    <g id="Group_15" data-name="Group 15" transform="translate(0 36)">
      <g id="Group_14" data-name="Group 14" transform="translate(0 0)">
        <path id="Path_11" data-name="Path 11" d="M25.037,42.979l-15.972-4.1a.75.75,0,0,0-.918.893L10.6,50.507H9.641L6.7,37.661a.75.75,0,0,0-.579-.567L.9,36.015a.749.749,0,1,0-.3,1.468l4.75.981L8.312,51.423a.75.75,0,0,0,.731.582H23.8a.752.752,0,0,0,.743-.646l1.05-7.552A.749.749,0,0,0,25.037,42.979Zm-1.89,7.528H12.141L9.883,40.636l14.132,3.628Z" transform="translate(0 -36)" fill="#212121"/>
      </g>
    </g>
    <g id="Group_17" data-name="Group 17" transform="translate(13.583 43.714)">
      <g id="Group_16" data-name="Group 16">
        <path id="Path_12" data-name="Path 12" d="M272.412,190.279a.75.75,0,0,0-.75.749v3.3a.75.75,0,0,0,1.5,0v-3.3A.75.75,0,0,0,272.412,190.279Z" transform="translate(-271.662 -190.279)" fill="#212121"/>
      </g>
    </g>
    <g id="Group_19" data-name="Group 19" transform="translate(20.003 45.512)">
      <g id="Group_18" data-name="Group 18">
        <path id="Path_13" data-name="Path 13" d="M400.8,226.243a.75.75,0,0,0-.75.749v1.5a.75.75,0,0,0,1.5,0v-1.5A.75.75,0,0,0,400.8,226.243Z" transform="translate(-400.051 -226.243)" fill="#212121"/>
      </g>
    </g>
    <g id="Group_21" data-name="Group 21" transform="translate(10.171 53.005)">
      <g id="Group_20" data-name="Group 20" transform="translate(0 0)">
        <path id="Path_14" data-name="Path 14" d="M205.926,376.1a2.5,2.5,0,1,0,2.5,2.5A2.5,2.5,0,0,0,205.926,376.1Zm0,3.5a1,1,0,1,1,1-1A1,1,0,0,1,205.926,379.594Z" transform="translate(-203.426 -376.097)" fill="#212121"/>
      </g>
    </g>
    <g id="Group_23" data-name="Group 23" transform="translate(17.671 53.005)">
      <g id="Group_22" data-name="Group 22" transform="translate(0 0)">
        <path id="Path_15" data-name="Path 15" d="M355.925,376.1a2.5,2.5,0,1,0,2.5,2.5A2.5,2.5,0,0,0,355.925,376.1Zm0,3.5a1,1,0,1,1,1-1A1,1,0,0,1,355.925,379.594Z" transform="translate(-353.425 -376.097)" fill="#212121"/>
      </g>
    </g>
    <g id="Group_25" data-name="Group 25" transform="translate(16.793 44.713)">
      <g id="Group_24" data-name="Group 24">
        <path id="Path_16" data-name="Path 16" d="M336.606,210.259a.75.75,0,0,0-.75.749v2.3a.75.75,0,0,0,1.5,0v-2.3A.75.75,0,0,0,336.606,210.259Z" transform="translate(-335.856 -210.259)" fill="#212121"/>
      </g>
    </g>
  </g>
</svg>
