<svg xmlns="http://www.w3.org/2000/svg" width="477.825" height="477.714" viewBox="0 0 477.825 477.714">
  <g id="download_1_" data-name="download (1)" transform="translate(-0.001 -0.056)">
    <g id="Group_59" data-name="Group 59">
      <g id="Group_58" data-name="Group 58">
        <path id="Path_234" data-name="Path 234" d="M441.537,160.625a132.845,132.845,0,0,0,2.253-24.2A136.533,136.533,0,0,0,178.9,90.055a68.265,68.265,0,0,0-91.631,47.5,102.4,102.4,0,0,0,15.189,203.674H187.79a17.067,17.067,0,1,0,0-34.134H102.457a68.267,68.267,0,1,1,0-136.534,17.067,17.067,0,0,0,17.067-17.067,34.133,34.133,0,0,1,58.026-24.32,17.066,17.066,0,0,0,28.825-9.421A102.3,102.3,0,0,1,408.2,153.3q-.828,4.984-2.146,9.869a17.066,17.066,0,0,0,7.049,18.773,68.267,68.267,0,0,1-37.581,125.15h-51.2a17.067,17.067,0,0,0,0,34.134h51.2a102.4,102.4,0,0,0,66.014-180.6Z" fill="#fff"/>
      </g>
    </g>
    <g id="Group_61" data-name="Group 61">
      <g id="Group_60" data-name="Group 60">
        <path id="Path_235" data-name="Path 235" d="M353.07,363.292a17.067,17.067,0,0,0-23.712,0l-56.235,56.2V170.558a17.067,17.067,0,1,0-34.134,0V419.492l-56.2-56.2a17.066,17.066,0,0,0-24.132,24.132l85.333,85.333a17.067,17.067,0,0,0,24.136.03l.031-.03,85.333-85.333A17.064,17.064,0,0,0,353.07,363.292Z" fill="#fff"/>
      </g>
    </g>
  </g>
</svg>
