<svg xmlns="http://www.w3.org/2000/svg" width="12.892" height="11.054" viewBox="0 0 12.892 11.054">
  <g id="right" transform="translate(0 -31.877)">
    <g id="Group_27" data-name="Group 27" transform="translate(0.001 31.877)">
      <path id="Path_17" data-name="Path 17" d="M12.622,36.757h0L8.01,32.144a.922.922,0,0,0-1.384.1.955.955,0,0,0,.134,1.222l2.546,2.555a1.845,1.845,0,0,0,.461.337l.281.148H.986a.955.955,0,0,0-.973.752.922.922,0,0,0,.922,1.07H10.03l-.2.092a1.845,1.845,0,0,0-.521.364l-2.55,2.55a.955.955,0,0,0-.134,1.222.922.922,0,0,0,1.384.12l4.612-4.612A.922.922,0,0,0,12.622,36.757Z" transform="translate(-0.001 -31.877)" fill="#fff"/>
    </g>
  </g>
</svg>
