<?xml version="1.0" encoding="utf-8"?>
<!-- Generator: Adobe Illustrator 23.0.2, SVG Export Plug-In . SVG Version: 6.00 Build 0)  -->
<svg version="1.1" id="Layer_1" xmlns="http://www.w3.org/2000/svg" xmlns:xlink="http://www.w3.org/1999/xlink" x="0px" y="0px"
	 width="35px" height="35px" viewBox="0 0 35 35" style="enable-background:new 0 0 35 35;" xml:space="preserve">
<style type="text/css">
	.st0{fill:#D80027;}
</style>
<g>
	<g>
		<path class="st0" d="M29.8,5.3h-8.1V3.9c0-0.8-0.6-1.4-1.4-1.4h-5.6c-0.8,0-1.4,0.6-1.4,1.4v1.4H5.2C4.8,5.3,4.5,5.6,4.5,6
			c0,0.4,0.3,0.7,0.7,0.7h1.3L7.4,30c0.1,1.4,1.2,2.5,2.6,2.5h14.9c1.4,0,2.6-1.1,2.6-2.5l0.9-23.2h1.3c0.4,0,0.7-0.3,0.7-0.7
			C30.5,5.6,30.2,5.3,29.8,5.3z M14.7,3.9h5.6v1.4h-5.6V3.9z M26.2,29.9c0,0.7-0.6,1.2-1.2,1.2H10.1c-0.7,0-1.2-0.5-1.2-1.2L8,6.7
			H27L26.2,29.9z"/>
	</g>
</g>
<g>
	<g>
		<path class="st0" d="M13.2,13.1c0-0.4-0.3-0.7-0.7-0.7c0,0,0,0,0,0c-0.4,0-0.7,0.3-0.7,0.7L12,24.7c0,0.4,0.3,0.7,0.7,0.7
			c0,0,0,0,0,0c0.4,0,0.7-0.3,0.7-0.7L13.2,13.1z"/>
	</g>
</g>
<g>
	<g>
		<path class="st0" d="M17.5,12.4c-0.4,0-0.7,0.3-0.7,0.7v11.5c0,0.4,0.3,0.7,0.7,0.7c0.4,0,0.7-0.3,0.7-0.7V13.2
			C18.2,12.8,17.9,12.4,17.5,12.4z"/>
	</g>
</g>
<g>
	<g>
		<path class="st0" d="M22.5,12.4c-0.4,0-0.7,0.3-0.7,0.7l-0.2,11.5c0,0.4,0.3,0.7,0.7,0.7c0,0,0,0,0,0c0.4,0,0.7-0.3,0.7-0.7
			l0.2-11.5C23.2,12.8,22.9,12.5,22.5,12.4z"/>
	</g>
</g>
</svg>
